<svg width="21" height="23" viewBox="0 0 21 23" fill="none" xmlns="http://www.w3.org/2000/svg">
<path d="M4.70062 22.2813H0.346875V7.82281H4.70062V22.2813ZM2.52141 5.85054C1.12922 5.85054 0 4.66138 0 3.22569C9.96468e-09 2.53607 0.265647 1.8747 0.738503 1.38707C1.21136 0.899437 1.85269 0.625488 2.52141 0.625488C3.19012 0.625488 3.83145 0.899437 4.30431 1.38707C4.77716 1.8747 5.04281 2.53607 5.04281 3.22569C5.04281 4.66138 3.91313 5.85054 2.52141 5.85054ZM20.9953 22.2813H16.6509V15.243C16.6509 13.5656 16.6181 11.4145 14.3873 11.4145C12.1237 11.4145 11.7769 13.2369 11.7769 15.1221V22.2813H7.42781V7.82281H11.6034V9.79507H11.6644C12.2456 8.65909 13.6655 7.46026 15.7838 7.46026C20.19 7.46026 21 10.4525 21 14.339V22.2813H20.9953Z" fill="#73808D"/>
</svg>
