<svg width="27" height="18" viewBox="0 0 27 18" fill="none" xmlns="http://www.w3.org/2000/svg">
<path d="M10.875 8.0914C12.3656 7.35664 13.1437 6.24482 13.1437 4.51426C13.1437 1.10146 10.6781 0.27002 7.83281 0.27002H0V17.4017H8.05313C11.0719 17.4017 13.9078 15.908 13.9078 12.4275C13.9078 10.2764 12.9187 8.68599 10.875 8.0914ZM3.65156 3.19458H7.07812C8.39531 3.19458 9.58125 3.57646 9.58125 5.15234C9.58125 6.60737 8.65781 7.19229 7.35469 7.19229H3.65156V3.19458ZM7.55625 14.4916H3.65156V9.77363H7.63125C9.23906 9.77363 10.2563 10.4649 10.2563 12.2196C10.2563 13.9502 9.04219 14.4916 7.55625 14.4916ZM24.3609 2.8562H17.625V1.16914H24.3609V2.8562ZM27 11.3785C27 7.70952 24.9188 4.64961 21.1453 4.64961C17.4797 4.64961 14.9906 7.49199 14.9906 11.2142C14.9906 15.0765 17.3484 17.7255 21.1453 17.7255C24.0188 17.7255 25.8797 16.3914 26.775 13.5538H23.8594C23.5453 14.6125 22.2516 15.1732 21.2484 15.1732C19.3125 15.1732 18.2953 14.0034 18.2953 12.0166H26.9719C26.9859 11.8136 27 11.596 27 11.3785ZM18.3 9.87031C18.4078 8.24126 19.4578 7.22129 21.0422 7.22129C22.7016 7.22129 23.5359 8.22676 23.6766 9.87031H18.3Z" fill="#73808D"/>
</svg>
